<svg width="119" height="63" viewBox="0 0 119 63" fill="none" xmlns="http://www.w3.org/2000/svg">
<g clip-path="url(#clip0_490_102)">
<path d="M108.975 20.9051C108.257 20.9051 107.529 20.9746 106.801 21.1037C103.569 21.6994 100.696 23.5066 98.6712 25.969C98.2224 26.4655 97.8134 27.0017 97.4443 27.5577C95.6389 25.5917 93.0255 24.3903 90.0031 24.3903C89.2849 24.3903 88.5568 24.4598 87.8286 24.5889C86.5718 24.8172 85.3748 25.2442 84.2676 25.8002C84.1578 23.169 83.9883 16.2085 83.9883 16.2085C83.9883 14.6397 84.5768 13.8652 85.9733 13.607C86.3723 13.5375 86.6615 13.4978 87.1902 13.4978H89.235L89.0954 4.66073L83.8386 1.98975L19.3612 13.9645C19.2016 13.4879 17.6754 11.224 17.5757 11.1545C15.8002 9.26794 13.0371 8.52324 9.68558 9.13885C4.43881 10.102 0.488768 14.2624 0.488768 18.8199C0.488768 21.0739 1.30671 23.725 4.72808 25.0158L0 27.2003L0.528667 28.7294C1.35658 31.1621 3.15205 32.8103 5.53604 33.5054L1.60595 34.2302V58.1599C2.51366 58.7259 5.91509 60.6521 6.56345 60.9997C6.56345 60.9997 41.3158 55.8364 68.1083 50.981L82.2427 57.4549L80.2676 48.598L88.6565 47.3171V47.2774C88.7263 47.2674 88.7961 47.2575 88.8759 47.2476C92.7961 46.5227 96.1875 44.0404 98.1725 40.7935C99.968 42.7595 102.601 43.961 105.624 43.961C106.352 43.961 107.09 43.8915 107.828 43.7525C114.102 42.6007 119.01 36.931 119.01 30.8543C119.01 25.1846 114.701 20.8952 108.985 20.8952L108.975 20.9051Z" fill="#22232F"/>
<path d="M2.23438 28.1536C3.23186 31.053 6.06472 32.6616 10.2242 31.897C14.673 31.0828 18.1542 27.6969 18.1542 23.7748C18.1542 19.6144 14.3239 19.1478 11.7504 18.8995C9.87511 18.7208 8.32901 18.6811 8.32901 17.7279C8.32901 17.0626 8.97738 16.2683 10.1444 16.0498C11.3115 15.8314 11.9 16.308 12.2192 17.1222L17.5458 14.6299C16.5782 11.5717 13.9449 10.2014 10.0247 10.9164C5.72557 11.7107 2.3042 15.1065 2.3042 18.83C2.3042 22.911 5.6358 23.745 8.44871 23.9635C10.3838 24.1025 12.1095 24.0429 12.1095 25.0656C12.1095 25.6812 11.4711 26.4061 10.2941 26.6245C9.11702 26.843 8.21929 26.3664 7.90009 25.5522L2.25432 28.1636L2.23438 28.1536Z" fill="#ABFC00"/>
<path d="M19.4609 23.5269C19.4609 27.5483 21.8848 29.6036 25.6054 28.9185C27.4209 28.5809 28.8273 27.5681 29.6453 26.4263H29.7051V28.015L35.1414 27.0121V12.5947L29.5854 13.6174V20.4885C29.5854 22.4347 28.7974 23.6659 27.2712 23.9439C25.7451 24.222 25.0169 23.2787 25.0169 21.829V14.4614L19.4609 15.4842V23.517V23.5269Z" fill="#ABFC00"/>
<path d="M71.2002 5.97173V20.3891L76.7562 19.3664V13.7762C76.7562 10.8967 78.3921 9.54629 80.417 9.16897C80.9456 9.06968 81.3546 9.02996 81.993 9.02003V3.6582C79.6489 4.08516 78.0429 4.9093 76.7562 6.68664V4.93909L71.2002 5.9618V5.97173Z" fill="#ABFC00"/>
<path d="M3.40137 35.72V56.1049L9.24663 55.0325V44.6067L13.3164 50.9913L17.7352 50.1771L21.805 42.2932V52.719L27.6502 51.6466V31.2617L20.9471 32.493L15.5408 43.6535L10.1045 34.4887L3.40137 35.72Z" fill="#ABFC00"/>
<path d="M60.7266 23.9238V45.7583L66.2826 44.7356V39.9298L67.7987 39.6518L70.6615 43.9313L77.7137 42.6306L72.4769 36.1368L77.7137 28.2132L70.5518 29.5338L67.7987 34.4091L66.2826 34.6871V22.8911L60.7266 23.9138V23.9238Z" fill="#ABFC00"/>
<path d="M48.1084 33.4859V47.9033L53.6644 46.8805V41.2903C53.6644 38.4108 55.3003 37.0604 57.3252 36.6831C57.8538 36.5838 58.2628 36.5441 58.9012 36.5342V31.1724C56.5571 31.5993 54.9511 32.4235 53.6644 34.2008V32.4532L48.1084 33.476V33.4859Z" fill="#ABFC00"/>
<path d="M46.9517 10.1419C45.3158 10.4398 43.9692 11.4228 43.0316 12.6937V11.1547L37.4756 12.1774V33.8729L43.0316 32.8502V24.0528C43.9692 24.9564 45.3158 25.443 46.9517 25.1351C50.7521 24.4401 53.5052 20.7265 53.5052 16.447C53.5052 12.1675 50.7521 9.4369 46.9517 10.1419ZM47.7497 20.8258C49.2858 17.847 49.4055 14.7094 46.2136 12.7831C51.6399 11.3433 52.7172 19.535 47.7497 20.8258Z" fill="#ABFC00"/>
<path d="M40.1093 34.9353V36.3949C39.1717 35.4318 37.8251 35.0644 36.1892 35.3722C32.3888 36.0673 29.6357 39.7808 29.6357 44.0604C29.6357 48.3399 32.3888 51.0705 36.1892 50.3655C37.8251 50.0676 39.1717 49.2037 40.1093 47.8931V49.3527L45.6653 48.33V33.9126L40.1093 34.9353ZM37.2166 46.503C38.7528 43.5242 38.8725 40.3865 35.6805 38.4602C41.1068 37.0205 42.1841 45.2122 37.2166 46.503Z" fill="#ABFC00"/>
<path d="M69.595 13.1905C69.595 8.32514 66.6424 6.36907 62.2834 7.17334C57.8047 7.99748 54.5928 11.8203 54.5928 16.2487C54.5928 20.9652 57.9244 23.1198 62.3432 22.3056C64.8868 21.8389 67.1112 20.5283 68.5476 18.3935L65.4753 16.3679C64.6574 17.3012 63.8095 17.8076 62.5826 18.036C61.5253 18.2346 60.2984 18.0162 59.7996 16.7452L69.5351 14.9579C69.595 14.6005 69.595 13.9253 69.595 13.2004V13.1905ZM64.5976 14.2132C64.2584 12.0784 63.1213 10.4004 60.7173 10.6089C62.9916 7.79889 66.6823 11.6515 64.5976 14.2132Z" fill="#ABFC00"/>
<path d="M105.704 22.7523C101.085 23.6062 97.2949 27.9254 97.2949 32.483C97.2949 37.0405 101.095 39.8505 105.704 38.9966C110.322 38.1427 114.113 33.9128 114.113 29.385C114.113 24.8573 110.312 21.8983 105.704 22.7423V22.7523ZM108.965 34.4689C110.362 31.1624 110.222 27.7864 106.641 25.9892C112.327 24.0034 114.172 32.6716 108.965 34.4689Z" fill="#ABFC00"/>
<path d="M87.7789 26.0486C83.1606 26.9026 79.3701 31.2218 79.3701 35.7794C79.3701 40.3369 83.1705 43.1469 87.7789 42.293C92.3973 41.4391 96.1877 37.2092 96.1877 32.6814C96.1877 28.1537 92.3873 25.1947 87.7789 26.0387V26.0486ZM90.7614 37.4971C92.4172 34.3098 92.5369 30.9339 89.1155 28.8686C94.9409 27.3295 96.0979 36.117 90.7614 37.4971Z" fill="#ABFC00"/>
</g>
<defs>
<clipPath id="clip0_490_102">
<rect width="119" height="59" fill="white" transform="translate(0 2)"/>
</clipPath>
</defs>
</svg>
