<svg width="101" height="42" viewBox="0 0 101 42" fill="none" xmlns="http://www.w3.org/2000/svg">
<path d="M95.7592 30H62.2408C59.3575 30 57 32.2479 57 34.9972C57 36.3718 57.5908 37.6225 58.5421 38.5296L57 40H95.7592C98.6425 40 101 37.7521 101 35.0028C101 32.2535 98.6425 30.0056 95.7592 30.0056V30Z" fill="#AEEC7A"/>
<path d="M68.3712 8C67.8977 8 67.4184 8.04773 66.9332 8.13722C64.3436 8.62645 62.099 10.3268 60.7837 12.5462C59.5854 11.1919 57.8434 10.3626 55.8267 10.3626C55.3532 10.3626 54.8739 10.4103 54.3946 10.4998C50.2501 11.2814 47 15.1594 47 19.3358C47 23.1362 49.8409 26 53.6054 26C54.0848 26 54.5758 25.9523 55.0668 25.8628C57.6564 25.3735 59.901 23.6911 61.2163 21.4896C62.4088 22.82 64.139 23.6374 66.1441 23.6374C66.6234 23.6374 67.1144 23.5897 67.6054 23.5002C71.7499 22.7186 75 18.8764 75 14.7537C75 10.9055 72.1474 8.00597 68.3712 8.00597V8Z" fill="#102E2A"/>
<path d="M48 18.1659C48 21.4549 50.711 23.5067 54 22.8912C57.289 22.2756 60 19.2039 60 15.921C60 12.638 57.289 10.4896 54 11.1052C50.711 11.7207 48 14.8588 48 18.1659Z" fill="#AEEC7A"/>
<path d="M61 16.1659C61 19.4549 63.711 21.5067 67 20.8912C70.289 20.2756 73 17.2039 73 13.921C73 10.638 70.289 8.48963 67 9.10518C63.711 9.72073 61 12.8588 61 16.1659Z" fill="#AEEC7A"/>
<path d="M68.7227 17C69.7575 14.7352 69.6584 12.4305 67 11.2014C71.2199 9.84134 72.5832 15.7709 68.7227 17Z" fill="#102E2A"/>
<path d="M56.2983 19C57.6032 16.8257 57.702 14.5325 55 13.1227C59.5934 12.0752 60.5029 18.0544 56.2983 19Z" fill="#102E2A"/>
<path d="M93.0064 35.3523V35.3734C94.2566 35.3593 94.657 35.1767 94.657 34.6921C94.657 34.2987 94.4252 34.0318 93.9476 34.0318C93.2944 34.0318 93.0064 34.6148 93.0064 35.3523ZM93.8844 37.621C92.606 37.621 92.0371 36.736 92.0371 35.4787C92.0371 34.2566 92.6693 33.3716 93.9335 33.3716C94.959 33.3716 95.4788 33.9054 95.4788 34.6078C95.4788 35.5349 94.7905 35.9212 93.0275 35.9423C93.1188 36.4972 93.4629 36.8624 94.053 36.8624C94.5797 36.8624 94.9169 36.7571 95.3875 36.5464V37.2417C95.0082 37.4595 94.5516 37.621 93.8844 37.621Z" fill="#102E2A"/>
<path d="M89.6737 32.585H90.2989L90.3059 33.4629H91.3314V34.1583H90.3059V36.3357C90.3059 36.6799 90.4604 36.7922 90.7203 36.7922C90.9872 36.7922 91.2049 36.7009 91.4367 36.6026V37.3541C91.1487 37.5227 90.8116 37.6351 90.4042 37.6351C89.6878 37.6351 89.3647 37.298 89.3647 36.5394V34.1583H88.6553V33.491H89.3085C89.5894 33.3014 89.6737 32.9221 89.6737 32.585Z" fill="#102E2A"/>
<path d="M85.391 36.3286C85.391 36.7079 85.6579 36.8554 86.0864 36.8554C86.7958 36.8554 87.154 36.3567 87.154 35.6262V35.57C86.0513 35.5911 85.391 35.8089 85.391 36.3286ZM87.154 35.0573V34.973C87.154 34.4181 86.9363 34.1161 86.269 34.1161C85.8195 34.1161 85.3418 34.2636 84.8361 34.5094V33.8071C85.2857 33.5612 85.8054 33.3716 86.4376 33.3716C87.3717 33.3716 88.1022 33.786 88.1022 35.0011V36.1811C88.1022 36.6868 88.1163 37.038 88.1654 37.5297H87.154C87.2102 37.2487 87.2523 37.0029 87.2594 36.6939H87.1259C86.9292 37.2979 86.4376 37.628 85.7352 37.628C84.9415 37.628 84.4639 37.2277 84.4639 36.4972C84.4639 35.3804 85.4964 35.0784 87.154 35.0573Z" fill="#102E2A"/>
<path d="M83.6642 33.3789C83.8609 33.3789 84.0646 33.414 84.2191 33.4702V34.3693C84.0295 34.299 83.8188 34.2709 83.58 34.2709C82.9338 34.2709 82.6036 34.6783 82.6036 35.479V37.53H81.6133C81.6554 37.1015 81.6695 36.7784 81.6695 36.2938L81.6765 34.8047C81.6765 34.2288 81.6695 33.9127 81.6133 33.4562H82.5615C82.4772 33.7933 82.4491 33.997 82.4421 34.3693H82.5826C82.6669 33.7512 83.0883 33.3789 83.6642 33.3789Z" fill="#102E2A"/>
<path d="M79.0836 33.3511C80.4392 33.3511 80.973 34.1307 80.973 35.4723C80.973 36.5329 80.5094 37.6356 79.1046 37.6356C77.7209 37.6356 77.2012 36.7787 77.2012 35.4723C77.2012 34.0816 77.8895 33.3511 79.0836 33.3511ZM79.0976 34.0535C78.5006 34.0535 78.1283 34.4749 78.1283 35.4863C78.1283 36.4345 78.4584 36.9051 79.1046 36.9051C79.7368 36.9051 80.0388 36.3854 80.0388 35.4863C80.0388 34.4538 79.6946 34.0535 79.0976 34.0535Z" fill="#102E2A"/>
<path d="M74.6968 36.8626C75.2306 36.8626 75.5678 36.3639 75.5678 35.493C75.5678 34.6642 75.3079 34.1233 74.6898 34.1233C74.0014 34.1233 73.7275 34.6501 73.7275 35.507C73.7275 36.3499 74.0295 36.8626 74.6968 36.8626ZM73.7486 36.687H73.6292C73.6432 37.0171 73.6713 37.2279 73.7697 37.5299V39.0049H72.7793C72.8214 38.5975 72.8355 38.2393 72.8355 37.8881V34.6712C72.8355 34.2357 72.8285 33.9056 72.7863 33.4631H73.7205C73.6573 33.7581 73.6292 33.9618 73.6222 34.2849C73.6643 34.2778 73.7064 34.2778 73.7486 34.2778C73.9172 33.6317 74.458 33.3647 75.055 33.3647C76.0454 33.3647 76.5792 34.0882 76.5792 35.4719C76.5792 36.7783 76.1086 37.6282 75.055 37.6282C74.4088 37.6282 73.9242 37.3262 73.7486 36.687Z" fill="#102E2A"/>
<path d="M71.5646 33.3789C71.7613 33.3789 71.965 33.414 72.1195 33.4702V34.3693C71.9299 34.299 71.7192 34.2709 71.4803 34.2709C70.8342 34.2709 70.504 34.6783 70.504 35.479V37.53H69.5137C69.5558 37.1015 69.5699 36.7784 69.5699 36.2938L69.5769 34.8047C69.5769 34.2288 69.5699 33.9127 69.5137 33.4562H70.4619C70.3776 33.7933 70.3495 33.997 70.3425 34.3693H70.483C70.5672 33.7512 70.9887 33.3789 71.5646 33.3789Z" fill="#102E2A"/>
<path d="M66.984 33.3511C68.3396 33.3511 68.8734 34.1307 68.8734 35.4723C68.8734 36.5329 68.4098 37.6356 67.005 37.6356C65.6213 37.6356 65.1016 36.7787 65.1016 35.4723C65.1016 34.0816 65.7899 33.3511 66.984 33.3511ZM66.998 34.0535C66.401 34.0535 66.0287 34.4749 66.0287 35.4863C66.0287 36.4345 66.3588 36.9051 67.005 36.9051C67.6372 36.9051 67.9392 36.3854 67.9392 35.4863C67.9392 34.4538 67.595 34.0535 66.998 34.0535Z" fill="#102E2A"/>
<path d="M64.4091 33.1894C64.065 33.0489 63.6997 32.9576 63.2432 32.9576C62.2809 32.9576 61.712 33.6951 61.712 34.833C61.712 36.0692 62.3371 36.7083 63.1729 36.7083C63.7067 36.7083 64.072 36.5819 64.5004 36.3642L64.5075 37.2562C64.1211 37.502 63.6505 37.6495 63.0184 37.6495C61.5715 37.6495 60.6514 36.6241 60.6514 34.833C60.6514 33.0419 61.712 32.0234 63.0957 32.0234C63.6576 32.0234 64.0439 32.1288 64.4091 32.3114V33.1894Z" fill="#102E2A"/>
<path d="M10.5298 4.02323C14.744 4.02323 17.1726 5.74216 17.1726 8.89547C17.1726 11.6829 15.0893 13.216 11.9405 13.3728V14C15.7024 14.1278 18 15.5854 18 18.7677C18 22.3856 15.5714 24 10.875 24H1C1.29167 21.0035 1.375 20.1208 1.375 17.4146L1.39881 10.957C1.39881 7.90244 1.32143 7.04297 1 4L10.5298 4.02323ZM6.71429 8.26829V12.4843H9.41071C11.0417 12.4843 11.9762 12.0139 11.9762 10.3995C11.9762 8.78513 11.0417 8.26249 9.49405 8.26249H6.72024L6.71429 8.26829ZM6.71429 15.2195V19.5923H9.64881C11.3333 19.5923 12.3452 18.9652 12.3452 17.3275C12.3452 15.7886 11.3869 15.2195 9.80952 15.2195H6.71429Z" fill="#102E2A"/>
<path d="M27.4484 14.2396C27.4484 12.7298 26.6561 12.0457 24.7371 12.0457C23.1819 12.0457 21.2101 12.6296 19.3439 13.4729V9.69259C21.1573 8.74309 23.1878 8 25.8697 8C29.2383 8 32.7359 9.29746 32.7359 14.6111V18.5802C32.7359 20.4851 32.7887 21.8061 33 23.6285H27.4718C27.8122 22.2543 27.9707 21.352 28 19.9012H27.3955C26.9495 22.4902 25.2359 24 22.5246 24C19.8134 24 18 22.5197 18 19.742C18 15.5665 21.8146 14.3457 27.4484 14.2691V14.2455V14.2396ZM24.8662 19.8187C26.6033 19.8187 27.4425 18.5743 27.4425 16.8286V16.3273C24.784 16.404 23.0469 17.0173 23.0469 18.3914C23.0469 19.4235 23.757 19.8187 24.8603 19.8187H24.8662Z" fill="#102E2A"/>
<path d="M39.7868 7.20237V18.8967C39.7868 20.9712 39.8105 22.2456 40 24H34C34.2665 20.9416 34.3435 20.011 34.3435 17.2489V10.0711C34.3435 6.95936 34.077 3.98391 34 3H40C39.8401 4.75445 39.7868 5.68501 39.7868 7.19644V7.20237Z" fill="#102E2A"/>
<path d="M46.7868 7.20237V18.8967C46.7868 20.9712 46.8105 22.2456 47 24H41C41.2665 20.9416 41.3435 20.011 41.3435 17.2489V10.0711C41.3435 6.95936 41.077 3.98391 41 3H47C46.8401 4.75445 46.7868 5.68501 46.7868 7.19644V7.20237Z" fill="#102E2A"/>
<path d="M86 8.458V13.5925C85.1749 13.2972 84.3497 13.1345 83.4242 13.1345C81.3725 13.1345 80.224 14.2433 80.224 17.0817V24H75C75.1505 22.3548 75.223 21.0531 75.223 19.191L75.2509 13.5141C75.2509 11.2964 75.223 10.0851 75 8.32542H80.1237C79.7223 9.97062 79.5996 10.8143 79.5717 12.6765H80.1738C80.3467 9.72957 81.6959 8 83.9483 8C84.6731 8 85.4257 8.16271 86 8.458Z" fill="#102E2A"/>
<path d="M95.4484 14.2396C95.4484 12.7298 94.6561 12.0457 92.7371 12.0457C91.1819 12.0457 89.2101 12.6296 87.3439 13.4729V9.69259C89.1573 8.74309 91.1878 8 93.8697 8C97.2383 8 100.736 9.29746 100.736 14.6111V18.5802C100.736 20.4851 100.789 21.8061 101 23.6285H95.4718C95.8122 22.2543 95.9707 21.352 96 19.9012H95.3955C94.9495 22.4902 93.2359 24 90.5246 24C87.8134 24 86 22.5197 86 19.742C86 15.5665 89.8146 14.3457 95.4484 14.2691V14.2455V14.2396ZM92.8721 19.8187C94.6092 19.8187 95.4484 18.5743 95.4484 16.8286V16.3273C92.7899 16.404 91.0528 17.0173 91.0528 18.3914C91.0528 19.4235 91.7629 19.8187 92.8662 19.8187H92.8721Z" fill="#102E2A"/>
</svg>
