<svg width="200" height="201" viewBox="0 0 200 201" fill="none" xmlns="http://www.w3.org/2000/svg">
<path d="M100 200C155.228 200 200 155.228 200 100C200 44.7715 155.228 0 100 0C44.7715 0 0 44.7715 0 100C0 155.228 44.7715 200 100 200Z" fill="#F4F4F4"/>
<path d="M129.6 151.554C158.337 135.055 168.258 98.3832 151.758 69.6461C135.258 40.9089 98.5867 30.9885 69.8496 47.4881C41.1125 63.9877 31.192 100.659 47.6916 129.396C64.1912 158.134 100.863 168.054 129.6 151.554Z" fill="#AEEC7A"/>
<path d="M78.8117 63.0982C82.6433 60.8983 83.9661 56.0087 81.7661 52.1771C79.5662 48.3455 74.6766 47.0227 70.845 49.2227C67.0134 51.4226 65.6906 56.3122 67.8906 60.1438C70.0905 63.9754 74.9801 65.2982 78.8117 63.0982Z" fill="#102E2A"/>
<path d="M89.2369 107.455V98.4545H90.2085V99.4943H90.3278C90.4016 99.3807 90.5039 99.2358 90.6346 99.0597C90.7681 98.8807 90.9585 98.7216 91.2056 98.5824C91.4556 98.4403 91.7937 98.3693 92.2198 98.3693C92.771 98.3693 93.2567 98.5071 93.6772 98.7827C94.0977 99.0582 94.4258 99.4489 94.6616 99.9545C94.8974 100.46 95.0153 101.057 95.0153 101.744C95.0153 102.438 94.8974 103.038 94.6616 103.547C94.4258 104.053 94.0991 104.445 93.6815 104.723C93.2638 104.999 92.7823 105.136 92.2369 105.136C91.8164 105.136 91.4798 105.067 91.2269 104.928C90.9741 104.786 90.7795 104.625 90.6431 104.446C90.5067 104.264 90.4016 104.114 90.3278 103.994H90.2425V107.455H89.2369ZM90.2255 101.727C90.2255 102.222 90.2979 102.658 90.4428 103.036C90.5877 103.411 90.7994 103.705 91.0778 103.918C91.3562 104.128 91.6971 104.233 92.1005 104.233C92.521 104.233 92.8718 104.122 93.1531 103.901C93.4371 103.676 93.6502 103.375 93.7923 102.997C93.9371 102.616 94.0096 102.193 94.0096 101.727C94.0096 101.267 93.9386 100.852 93.7965 100.483C93.6573 100.111 93.4457 99.8168 93.1616 99.6009C92.8803 99.3821 92.5266 99.2727 92.1005 99.2727C91.6914 99.2727 91.3477 99.3764 91.0692 99.5838C90.7908 99.7884 90.5806 100.075 90.4386 100.445C90.2965 100.811 90.2255 101.239 90.2255 101.727ZM97.555 96.2727V105H96.5494V96.2727H97.555ZM101.323 105.153C100.908 105.153 100.532 105.075 100.194 104.919C99.8558 104.76 99.5874 104.531 99.3885 104.233C99.1896 103.932 99.0902 103.568 99.0902 103.142C99.0902 102.767 99.1641 102.463 99.3118 102.23C99.4595 101.994 99.657 101.81 99.9041 101.676C100.151 101.543 100.424 101.443 100.722 101.378C101.023 101.31 101.326 101.256 101.63 101.216C102.028 101.165 102.35 101.126 102.597 101.101C102.847 101.072 103.029 101.026 103.143 100.96C103.259 100.895 103.317 100.781 103.317 100.619V100.585C103.317 100.165 103.202 99.8381 102.972 99.6051C102.745 99.3722 102.4 99.2557 101.937 99.2557C101.457 99.2557 101.08 99.3608 100.808 99.571C100.535 99.7812 100.343 100.006 100.232 100.244L99.2777 99.9034C99.4482 99.5057 99.6754 99.196 99.9595 98.9744C100.246 98.75 100.559 98.5937 100.897 98.5057C101.238 98.4148 101.573 98.3693 101.903 98.3693C102.113 98.3693 102.354 98.3949 102.627 98.446C102.903 98.4943 103.168 98.5952 103.424 98.7486C103.683 98.902 103.897 99.1335 104.067 99.4432C104.238 99.7528 104.323 100.168 104.323 100.688V105H103.317V104.114H103.266C103.198 104.256 103.085 104.408 102.925 104.57C102.766 104.732 102.555 104.869 102.29 104.983C102.026 105.097 101.704 105.153 101.323 105.153ZM101.477 104.25C101.874 104.25 102.21 104.172 102.482 104.016C102.758 103.859 102.965 103.658 103.104 103.411C103.246 103.163 103.317 102.903 103.317 102.631V101.71C103.275 101.761 103.181 101.808 103.036 101.851C102.894 101.891 102.729 101.926 102.542 101.957C102.357 101.986 102.177 102.011 102.001 102.034C101.827 102.054 101.687 102.071 101.579 102.085C101.317 102.119 101.073 102.175 100.846 102.251C100.621 102.325 100.44 102.437 100.3 102.588C100.164 102.736 100.096 102.937 100.096 103.193C100.096 103.543 100.225 103.807 100.484 103.986C100.745 104.162 101.076 104.25 101.477 104.25ZM106.572 107.455C106.402 107.455 106.25 107.44 106.116 107.412C105.983 107.386 105.89 107.361 105.839 107.335L106.095 106.449C106.339 106.511 106.555 106.534 106.743 106.517C106.93 106.5 107.096 106.416 107.241 106.266C107.389 106.118 107.524 105.878 107.646 105.545L107.833 105.034L105.413 98.4545H106.504L108.311 103.67H108.379L110.186 98.4545H111.277L108.498 105.955C108.373 106.293 108.218 106.572 108.034 106.794C107.849 107.018 107.635 107.185 107.39 107.293C107.149 107.401 106.876 107.455 106.572 107.455Z" fill="#102E2A"/>
</svg>
