<svg width="72" height="30" viewBox="0 0 72 30" fill="none" xmlns="http://www.w3.org/2000/svg">
<path d="M66.0266 21.2432H43.379C41.4308 21.2432 39.8379 22.762 39.8379 24.6196C39.8379 25.5485 40.2371 26.3935 40.8799 27.0064L39.8379 27.9999H66.0266C67.9748 27.9999 69.5677 26.4811 69.5677 24.6235C69.5677 22.7658 67.9748 21.247 66.0266 21.247V21.2432Z" fill="#AEEC7A"/>
<path d="M47.5211 6.37842C47.2012 6.37842 46.8773 6.41067 46.5495 6.47114C44.7998 6.8017 43.2831 7.95059 42.3944 9.45021C41.5847 8.53512 40.4077 7.97478 39.0451 7.97478C38.7251 7.97478 38.4013 8.00703 38.0774 8.0675C35.2771 8.59559 33.0811 11.2159 33.0811 14.0377C33.0811 16.6056 35.0006 18.5406 37.5442 18.5406C37.8681 18.5406 38.1998 18.5084 38.5316 18.4479C40.2813 18.1173 41.798 16.9805 42.6867 15.493C43.4924 16.392 44.6615 16.9442 46.0163 16.9442C46.3401 16.9442 46.6719 16.912 47.0037 16.8515C49.804 16.3234 52 13.7273 52 10.9418C52 8.34162 50.0726 6.38245 47.5211 6.38245V6.37842Z" fill="#102E2A"/>
<path d="M33.7568 13.2471C33.7568 15.4694 35.5886 16.8558 37.8109 16.4399C40.0332 16.0239 41.865 13.9485 41.865 11.7303C41.865 9.51205 40.0332 8.06043 37.8109 8.47634C35.5886 8.89226 33.7568 11.0126 33.7568 13.2471Z" fill="#AEEC7A"/>
<path d="M42.541 11.896C42.541 14.1183 44.3728 15.5047 46.5951 15.0888C48.8174 14.6729 50.6491 12.5974 50.6491 10.3792C50.6491 8.16097 48.8174 6.70936 46.5951 7.12527C44.3728 7.54118 42.541 9.66152 42.541 11.896Z" fill="#AEEC7A"/>
<path d="M47.7587 12.4593C48.4579 10.929 48.3909 9.37185 46.5947 8.54134C49.446 7.62239 50.3672 11.6288 47.7587 12.4593Z" fill="#102E2A"/>
<path d="M39.3636 13.8109C40.2452 12.3418 40.312 10.7923 38.4863 9.83972C41.59 9.13194 42.2045 13.172 39.3636 13.8109Z" fill="#102E2A"/>
<path d="M64.1666 24.8598V24.8741C65.0114 24.8646 65.2819 24.7412 65.2819 24.4137C65.2819 24.1479 65.1253 23.9676 64.8026 23.9676C64.3612 23.9676 64.1666 24.3615 64.1666 24.8598ZM64.7599 26.3927C63.8961 26.3927 63.5117 25.7947 63.5117 24.9452C63.5117 24.1195 63.9388 23.5215 64.7931 23.5215C65.486 23.5215 65.8372 23.8822 65.8372 24.3568C65.8372 24.9832 65.3721 25.2442 64.1809 25.2585C64.2426 25.6334 64.4751 25.8802 64.8738 25.8802C65.2297 25.8802 65.4575 25.809 65.7755 25.6666V26.1364C65.5192 26.2836 65.2107 26.3927 64.7599 26.3927Z" fill="#102E2A"/>
<path d="M61.9147 22.9897H62.3371L62.3418 23.583H63.0347V24.0528H62.3418V25.524C62.3418 25.7566 62.4462 25.8325 62.6218 25.8325C62.8022 25.8325 62.9493 25.7708 63.1059 25.7044V26.2122C62.9113 26.3261 62.6835 26.402 62.4083 26.402C61.9242 26.402 61.7059 26.1742 61.7059 25.6617V24.0528H61.2266V23.602H61.6679C61.8578 23.4738 61.9147 23.2175 61.9147 22.9897Z" fill="#102E2A"/>
<path d="M59.021 25.5195C59.021 25.7758 59.2013 25.8754 59.4908 25.8754C59.9702 25.8754 60.2122 25.5385 60.2122 25.0449V25.0069C59.4671 25.0212 59.021 25.1683 59.021 25.5195ZM60.2122 24.6605V24.6035C60.2122 24.2286 60.0651 24.0245 59.6142 24.0245C59.3105 24.0245 58.9878 24.1242 58.6461 24.2903V23.8157C58.9498 23.6496 59.301 23.5215 59.7281 23.5215C60.3593 23.5215 60.8529 23.8015 60.8529 24.6225V25.4198C60.8529 25.7615 60.8624 25.9988 60.8956 26.331H60.2122C60.2502 26.1412 60.2786 25.9751 60.2834 25.7663H60.1932C60.0603 26.1744 59.7281 26.3975 59.2535 26.3975C58.7172 26.3975 58.3945 26.127 58.3945 25.6334C58.3945 24.8788 59.0922 24.6747 60.2122 24.6605Z" fill="#102E2A"/>
<path d="M57.8545 23.5264C57.9874 23.5264 58.1251 23.5501 58.2295 23.5881V24.1955C58.1013 24.1481 57.9589 24.1291 57.7976 24.1291C57.361 24.1291 57.1379 24.4043 57.1379 24.9454V26.3312H56.4688C56.4972 26.0417 56.5067 25.8234 56.5067 25.4959L56.5115 24.4898C56.5115 24.1006 56.5067 23.8871 56.4688 23.5786H57.1094C57.0525 23.8064 57.0335 23.944 57.0288 24.1955H57.1237C57.1806 23.7779 57.4654 23.5264 57.8545 23.5264Z" fill="#102E2A"/>
<path d="M54.7592 23.5073C55.6751 23.5073 56.0358 24.0341 56.0358 24.9406C56.0358 25.6572 55.7226 26.4023 54.7734 26.4023C53.8385 26.4023 53.4873 25.8233 53.4873 24.9406C53.4873 24.0009 53.9524 23.5073 54.7592 23.5073ZM54.7687 23.9819C54.3653 23.9819 54.1138 24.2667 54.1138 24.9501C54.1138 25.5908 54.3368 25.9087 54.7734 25.9087C55.2006 25.9087 55.4046 25.5575 55.4046 24.9501C55.4046 24.2524 55.1721 23.9819 54.7687 23.9819Z" fill="#102E2A"/>
<path d="M51.7956 25.8805C52.1563 25.8805 52.3841 25.5436 52.3841 24.9551C52.3841 24.3951 52.2085 24.0296 51.7909 24.0296C51.3258 24.0296 51.1407 24.3856 51.1407 24.9646C51.1407 25.5341 51.3448 25.8805 51.7956 25.8805ZM51.1549 25.7619H51.0742C51.0837 25.9849 51.1027 26.1273 51.1692 26.3314V27.328H50.5C50.5285 27.0527 50.538 26.8107 50.538 26.5734V24.3998C50.538 24.1056 50.5332 23.8825 50.5047 23.5835H51.1359C51.0932 23.7829 51.0742 23.9205 51.0695 24.1388C51.098 24.1341 51.1265 24.1341 51.1549 24.1341C51.2688 23.6974 51.6343 23.5171 52.0377 23.5171C52.7068 23.5171 53.0675 24.0059 53.0675 24.9408C53.0675 25.8236 52.7495 26.3978 52.0377 26.3978C51.601 26.3978 51.2736 26.1937 51.1549 25.7619Z" fill="#102E2A"/>
<path d="M49.6788 23.5264C49.8116 23.5264 49.9493 23.5501 50.0537 23.5881V24.1955C49.9255 24.1481 49.7832 24.1291 49.6218 24.1291C49.1852 24.1291 48.9621 24.4043 48.9621 24.9454V26.3312H48.293C48.3214 26.0417 48.3309 25.8234 48.3309 25.4959L48.3357 24.4898C48.3357 24.1006 48.3309 23.8871 48.293 23.5786H48.9337C48.8767 23.8064 48.8577 23.944 48.853 24.1955H48.9479C49.0048 23.7779 49.2896 23.5264 49.6788 23.5264Z" fill="#102E2A"/>
<path d="M46.5834 23.5073C47.4994 23.5073 47.86 24.0341 47.86 24.9406C47.86 25.6572 47.5468 26.4023 46.5976 26.4023C45.6627 26.4023 45.3115 25.8233 45.3115 24.9406C45.3115 24.0009 45.7766 23.5073 46.5834 23.5073ZM46.5929 23.9819C46.1895 23.9819 45.938 24.2667 45.938 24.9501C45.938 25.5908 46.161 25.9087 46.5976 25.9087C47.0248 25.9087 47.2288 25.5575 47.2288 24.9501C47.2288 24.2524 46.9963 23.9819 46.5929 23.9819Z" fill="#102E2A"/>
<path d="M44.8437 23.3982C44.6112 23.3032 44.3644 23.2415 44.0559 23.2415C43.4057 23.2415 43.0213 23.7399 43.0213 24.5087C43.0213 25.344 43.4437 25.7758 44.0084 25.7758C44.3691 25.7758 44.6159 25.6904 44.9054 25.5433L44.9102 26.146C44.6491 26.3121 44.3312 26.4118 43.904 26.4118C42.9264 26.4118 42.3047 25.7189 42.3047 24.5087C42.3047 23.2985 43.0213 22.6104 43.9562 22.6104C44.3359 22.6104 44.5969 22.6815 44.8437 22.8049V23.3982Z" fill="#102E2A"/>
<path d="M8.43904 3.69099C11.2865 3.69099 12.9275 4.85243 12.9275 6.98305C12.9275 8.86647 11.5198 9.90235 9.39223 10.0083V10.4321C11.9341 10.5184 13.4865 11.5033 13.4865 13.6535C13.4865 16.098 11.8456 17.1888 8.67231 17.1888H2C2.19707 15.1642 2.25338 14.5677 2.25338 12.7393L2.26947 8.376C2.26947 6.31208 2.21718 5.73136 2 3.67529L8.43904 3.69099ZM5.86101 6.55928V9.40796H7.68293C8.78493 9.40796 9.41636 9.09013 9.41636 7.99931C9.41636 6.9085 8.78493 6.55536 7.73924 6.55536H5.86503L5.86101 6.55928ZM5.86101 11.2561V14.2107H7.8438C8.982 14.2107 9.66572 13.7869 9.66572 12.6804C9.66572 11.6406 9.0182 11.2561 7.9524 11.2561H5.86101Z" fill="#102E2A"/>
<path d="M19.8704 10.5944C19.8704 9.57425 19.3351 9.11201 18.0384 9.11201C16.9876 9.11201 15.6553 9.50651 14.3944 10.0763V7.52206C15.6196 6.88051 16.9916 6.37842 18.8037 6.37842C21.0798 6.37842 23.4431 7.25508 23.4431 10.8454V13.5272C23.4431 14.8143 23.4787 15.7069 23.6215 16.9382H19.8862C20.1162 16.0097 20.2233 15.4001 20.2431 14.4198H19.8347C19.5333 16.1691 18.3755 17.1893 16.5435 17.1893C14.7116 17.1893 13.4863 16.1891 13.4863 14.3122C13.4863 11.491 16.0637 10.6661 19.8704 10.6143V10.5984V10.5944ZM18.1257 14.364C19.2994 14.364 19.8664 13.5232 19.8664 12.3437V12.005C18.0701 12.0568 16.8964 12.4712 16.8964 13.3997C16.8964 14.097 17.3762 14.364 18.1217 14.364H18.1257Z" fill="#102E2A"/>
<path d="M28.2069 5.83945V13.741C28.2069 15.1427 28.2229 16.0038 28.3509 17.1892H24.2969C24.477 15.1227 24.529 14.494 24.529 12.6277V7.7778C24.529 5.67525 24.3489 3.66481 24.2969 3H28.3509C28.2429 4.18544 28.2069 4.8142 28.2069 5.83544V5.83945Z" fill="#102E2A"/>
<path d="M32.9373 5.83945V13.741C32.9373 15.1427 32.9533 16.0038 33.0814 17.1892H29.0273C29.2074 15.1227 29.2595 14.494 29.2595 12.6277V7.7778C29.2595 5.67525 29.0794 3.66481 29.0273 3H33.0814C32.9734 4.18544 32.9373 4.8142 32.9373 5.83544V5.83945Z" fill="#102E2A"/>
<path d="M59.4325 6.68788V10.1571C58.8749 9.9576 58.3174 9.84766 57.6921 9.84766C56.3058 9.84766 55.5298 10.5969 55.5298 12.5147V17.1893H52C52.1017 16.0776 52.1507 15.1981 52.1507 13.9399L52.1695 10.1042C52.1695 8.60574 52.1507 7.78729 52 6.5983H55.4619C55.1907 7.70992 55.1078 8.27998 55.089 9.5382H55.4959C55.6126 7.54705 56.5243 6.37842 58.0462 6.37842C58.5359 6.37842 59.0444 6.48836 59.4325 6.68788Z" fill="#102E2A"/>
<path d="M65.8167 10.5944C65.8167 9.57425 65.2814 9.11201 63.9847 9.11201C62.9339 9.11201 61.6016 9.50651 60.3407 10.0763V7.52206C61.5659 6.88051 62.9379 6.37842 64.75 6.37842C67.0261 6.37842 69.3893 7.25508 69.3893 10.8454V13.5272C69.3893 14.8143 69.425 15.7069 69.5678 16.9382H65.8325C66.0625 16.0097 66.1696 15.4001 66.1894 14.4198H65.781C65.4796 16.1691 64.3218 17.1893 62.4898 17.1893C60.6579 17.1893 59.4326 16.1891 59.4326 14.3122C59.4326 11.491 62.01 10.6661 65.8167 10.6143V10.5984V10.5944ZM64.0759 14.364C65.2496 14.364 65.8167 13.5232 65.8167 12.3437V12.005C64.0204 12.0568 62.8467 12.4712 62.8467 13.3997C62.8467 14.097 63.3265 14.364 64.072 14.364H64.0759Z" fill="#102E2A"/>
</svg>
